<svg id="Hexels SVG Export" xmlns="http://www.w3.org/2000/svg" version="1.1" xmlns:xlink="http://www.w3.org/1999/xlink" viewBox="0 21 433 358" xml:space="preserve">
<g id="Root" transform="matrix(1.000, 0.000, 0.000, 1.000, 0.000, -0.000)">
<g id="Layer 1" transform="matrix(1.000, 0.000, 0.000, 1.000, 0.000, -0.000)">
<g>
<polygon points="173.21,50.00 172.22,42.53 169.34,35.57 164.75,29.59 158.77,25.00 151.81,22.12 144.34,21.13 136.87,22.12 129.90,25.00 123.93,29.59 119.34,35.57 116.45,42.53 115.47,50.00 116.45,57.47 119.34,64.43 123.93,70.41 129.90,75.00 136.87,77.88 144.34,78.87 151.81,77.88 158.77,75.00 164.75,70.41 169.34,64.43 172.22,57.47 " style="fill:#393ecf;;stroke:#393ecf;stroke-width:0.03;stroke-opacity:1.00" />
<polygon points="230.94,50.00 229.96,42.53 227.07,35.57 222.49,29.59 216.51,25.00 209.54,22.12 202.07,21.13 194.60,22.12 187.64,25.00 181.66,29.59 177.07,35.57 174.19,42.53 173.21,50.00 174.19,57.47 177.07,64.43 181.66,70.41 187.64,75.00 194.60,77.88 202.07,78.87 209.54,77.88 216.51,75.00 222.48,70.41 227.07,64.43 229.96,57.47 " style="fill:#393ecf;;stroke:#393ecf;stroke-width:0.03;stroke-opacity:1.00" />
<polygon points="288.68,50.00 287.69,42.53 284.81,35.57 280.22,29.59 274.24,25.00 267.28,22.12 259.81,21.13 252.34,22.12 245.37,25.00 239.40,29.59 234.81,35.57 231.92,42.53 230.94,50.00 231.92,57.47 234.81,64.43 239.40,70.41 245.37,75.00 252.34,77.88 259.81,78.87 267.28,77.88 274.24,75.00 280.22,70.41 284.81,64.43 287.69,57.47 " style="fill:#393ecf;;stroke:#393ecf;stroke-width:0.03;stroke-opacity:1.00" />
<polygon points="317.54,100.00 316.56,92.53 313.68,85.57 309.09,79.59 303.11,75.00 296.15,72.12 288.68,71.13 281.20,72.12 274.24,75.00 268.26,79.59 263.68,85.57 260.79,92.53 259.81,100.00 260.79,107.47 263.68,114.43 268.26,120.41 274.24,125.00 281.20,127.88 288.67,128.87 296.15,127.88 303.11,125.00 309.09,120.41 313.68,114.43 316.56,107.47 " style="fill:#393ecf;;stroke:#393ecf;stroke-width:0.03;stroke-opacity:1.00" />
<polygon points="375.28,100.00 374.29,92.53 371.41,85.57 366.82,79.59 360.84,75.00 353.88,72.12 346.41,71.13 338.94,72.12 331.98,75.00 326.00,79.59 321.41,85.57 318.53,92.53 317.54,100.00 318.53,107.47 321.41,114.43 326.00,120.41 331.98,125.00 338.94,127.88 346.41,128.87 353.88,127.88 360.84,125.00 366.82,120.41 371.41,114.43 374.29,107.47 " style="fill:#393ecf;;stroke:#393ecf;stroke-width:0.03;stroke-opacity:1.00" />
</g>
<polygon points="346.41,50.00 345.43,42.53 342.54,35.57 337.96,29.59 331.98,25.00 325.01,22.12 317.54,21.13 310.07,22.12 303.11,25.00 297.13,29.59 292.54,35.57 289.66,42.53 288.68,50.00 289.66,57.47 292.54,64.43 297.13,70.41 303.11,75.00 310.07,77.88 317.54,78.87 325.01,77.88 331.98,75.00 337.95,70.41 342.54,64.43 345.43,57.47 " style="fill:#b8b9cf;;stroke:#b8b9cf;stroke-width:0.03;stroke-opacity:1.00" />
<polygon points="144.34,100.00 143.35,92.53 140.47,85.57 135.88,79.59 129.90,75.00 122.94,72.12 115.47,71.13 108.00,72.12 101.04,75.00 95.06,79.59 90.47,85.57 87.59,92.53 86.60,100.00 87.59,107.47 90.47,114.43 95.06,120.41 101.04,125.00 108.00,127.88 115.47,128.87 122.94,127.88 129.90,125.00 135.88,120.41 140.47,114.43 143.35,107.47 " style="fill:#cf383b;;stroke:#cf383b;stroke-width:0.03;stroke-opacity:1.00" />
<g>
<polygon points="202.07,100.00 201.09,92.53 198.21,85.57 193.62,79.59 187.64,75.00 180.68,72.12 173.21,71.13 165.73,72.12 158.77,75.00 152.79,79.59 148.21,85.57 145.32,92.53 144.34,100.00 145.32,107.47 148.21,114.43 152.79,120.41 158.77,125.00 165.73,127.88 173.20,128.87 180.68,127.88 187.64,125.00 193.62,120.41 198.21,114.43 201.09,107.47 " style="fill:#b8b9cf;;stroke:#b8b9cf;stroke-width:0.03;stroke-opacity:1.00" />
<polygon points="259.81,100.00 258.82,92.53 255.94,85.57 251.35,79.59 245.37,75.00 238.41,72.12 230.94,71.13 223.47,72.12 216.51,75.00 210.53,79.59 205.94,85.57 203.06,92.53 202.07,100.00 203.06,107.47 205.94,114.43 210.53,120.41 216.51,125.00 223.47,127.88 230.94,128.87 238.41,127.88 245.37,125.00 251.35,120.41 255.94,114.43 258.82,107.47 " style="fill:#b8b9cf;;stroke:#b8b9cf;stroke-width:0.03;stroke-opacity:1.00" />
</g>
<g>
<polygon points="115.47,150.00 114.49,142.53 111.60,135.57 107.01,129.59 101.04,125.00 94.07,122.12 86.60,121.13 79.13,122.12 72.17,125.00 66.19,129.59 61.60,135.57 58.72,142.53 57.74,150.00 58.72,157.47 61.60,164.43 66.19,170.41 72.17,175.00 79.13,177.88 86.60,178.87 94.07,177.88 101.04,175.00 107.01,170.41 111.60,164.43 114.49,157.47 " style="fill:#393ecf;;stroke:#393ecf;stroke-width:0.03;stroke-opacity:1.00" />
<polygon points="173.21,150.00 172.22,142.53 169.34,135.57 164.75,129.59 158.77,125.00 151.81,122.12 144.34,121.13 136.87,122.12 129.90,125.00 123.93,129.59 119.34,135.57 116.45,142.53 115.47,150.00 116.45,157.47 119.34,164.43 123.93,170.41 129.90,175.00 136.87,177.88 144.34,178.87 151.81,177.88 158.77,175.00 164.75,170.41 169.34,164.43 172.22,157.47 " style="fill:#393ecf;;stroke:#393ecf;stroke-width:0.03;stroke-opacity:1.00" />
<polygon points="86.60,200.00 85.62,192.53 82.74,185.57 78.15,179.59 72.17,175.00 65.21,172.12 57.74,171.13 50.26,172.12 43.30,175.00 37.32,179.59 32.74,185.57 29.85,192.53 28.87,200.00 29.85,207.47 32.73,214.43 37.32,220.41 43.30,225.00 50.26,227.88 57.73,228.87 65.21,227.88 72.17,225.00 78.15,220.41 82.73,214.43 85.62,207.47 " style="fill:#393ecf;;stroke:#393ecf;stroke-width:0.03;stroke-opacity:1.00" />
<polygon points="144.34,200.00 143.35,192.53 140.47,185.57 135.88,179.59 129.90,175.00 122.94,172.12 115.47,171.13 108.00,172.12 101.04,175.00 95.06,179.59 90.47,185.57 87.59,192.53 86.60,200.00 87.59,207.47 90.47,214.43 95.06,220.41 101.04,225.00 108.00,227.88 115.47,228.87 122.94,227.88 129.90,225.00 135.88,220.41 140.47,214.43 143.35,207.47 " style="fill:#393ecf;;stroke:#393ecf;stroke-width:0.03;stroke-opacity:1.00" />
<polygon points="230.94,150.00 229.96,142.53 227.07,135.57 222.49,129.59 216.51,125.00 209.54,122.12 202.07,121.13 194.60,122.12 187.64,125.00 181.66,129.59 177.07,135.57 174.19,142.53 173.21,150.00 174.19,157.47 177.07,164.43 181.66,170.41 187.64,175.00 194.60,177.88 202.07,178.87 209.54,177.88 216.51,175.00 222.48,170.41 227.07,164.43 229.96,157.47 " style="fill:#393ecf;;stroke:#393ecf;stroke-width:0.03;stroke-opacity:1.00" />
<polygon points="259.81,200.00 258.82,192.53 255.94,185.57 251.35,179.59 245.37,175.00 238.41,172.12 230.94,171.13 223.47,172.12 216.51,175.00 210.53,179.59 205.94,185.57 203.06,192.53 202.07,200.00 203.06,207.47 205.94,214.43 210.53,220.41 216.51,225.00 223.47,227.88 230.94,228.87 238.41,227.88 245.37,225.00 251.35,220.41 255.94,214.43 258.82,207.47 " style="fill:#393ecf;;stroke:#393ecf;stroke-width:0.03;stroke-opacity:1.00" />
<polygon points="317.54,200.00 316.56,192.53 313.68,185.57 309.09,179.59 303.11,175.00 296.15,172.12 288.68,171.13 281.20,172.12 274.24,175.00 268.26,179.59 263.68,185.57 260.79,192.53 259.81,200.00 260.79,207.47 263.68,214.43 268.26,220.41 274.24,225.00 281.20,227.88 288.67,228.87 296.15,227.88 303.11,225.00 309.09,220.41 313.68,214.43 316.56,207.47 " style="fill:#393ecf;;stroke:#393ecf;stroke-width:0.03;stroke-opacity:1.00" />
<polygon points="230.94,250.00 229.96,242.53 227.07,235.57 222.49,229.59 216.51,225.00 209.54,222.12 202.07,221.13 194.60,222.12 187.64,225.00 181.66,229.59 177.07,235.57 174.19,242.53 173.21,250.00 174.19,257.47 177.07,264.43 181.66,270.41 187.64,275.00 194.60,277.88 202.07,278.87 209.54,277.88 216.51,275.00 222.48,270.41 227.07,264.43 229.96,257.47 " style="fill:#393ecf;;stroke:#393ecf;stroke-width:0.03;stroke-opacity:1.00" />
<polygon points="288.68,250.00 287.69,242.53 284.81,235.57 280.22,229.59 274.24,225.00 267.28,222.12 259.81,221.13 252.34,222.12 245.37,225.00 239.40,229.59 234.81,235.57 231.92,242.53 230.94,250.00 231.92,257.47 234.81,264.43 239.40,270.41 245.37,275.00 252.34,277.88 259.81,278.87 267.28,277.88 274.24,275.00 280.22,270.41 284.81,264.43 287.69,257.47 " style="fill:#393ecf;;stroke:#393ecf;stroke-width:0.03;stroke-opacity:1.00" />
<polygon points="202.07,300.00 201.09,292.53 198.21,285.57 193.62,279.59 187.64,275.00 180.68,272.12 173.21,271.13 165.73,272.12 158.77,275.00 152.79,279.59 148.21,285.57 145.32,292.53 144.34,300.00 145.32,307.47 148.21,314.43 152.79,320.41 158.77,325.00 165.73,327.88 173.20,328.87 180.68,327.88 187.64,325.00 193.62,320.41 198.21,314.43 201.09,307.47 " style="fill:#393ecf;;stroke:#393ecf;stroke-width:0.03;stroke-opacity:1.00" />
<polygon points="259.81,300.00 258.82,292.53 255.94,285.57 251.35,279.59 245.37,275.00 238.41,272.12 230.94,271.13 223.47,272.12 216.51,275.00 210.53,279.59 205.94,285.57 203.06,292.53 202.07,300.00 203.06,307.47 205.94,314.43 210.53,320.41 216.51,325.00 223.47,327.88 230.94,328.87 238.41,327.88 245.37,325.00 251.35,320.41 255.94,314.43 258.82,307.47 " style="fill:#393ecf;;stroke:#393ecf;stroke-width:0.03;stroke-opacity:1.00" />
<polygon points="317.54,300.00 316.56,292.53 313.68,285.57 309.09,279.59 303.11,275.00 296.15,272.12 288.68,271.13 281.20,272.12 274.24,275.00 268.26,279.59 263.68,285.57 260.79,292.53 259.81,300.00 260.79,307.47 263.68,314.43 268.26,320.41 274.24,325.00 281.20,327.88 288.67,328.87 296.15,327.88 303.11,325.00 309.09,320.41 313.68,314.43 316.56,307.47 " style="fill:#393ecf;;stroke:#393ecf;stroke-width:0.03;stroke-opacity:1.00" />
<polygon points="144.34,300.00 143.35,292.53 140.47,285.57 135.88,279.59 129.90,275.00 122.94,272.12 115.47,271.13 108.00,272.12 101.04,275.00 95.06,279.59 90.47,285.57 87.59,292.53 86.60,300.00 87.59,307.47 90.47,314.43 95.06,320.41 101.04,325.00 108.00,327.88 115.47,328.87 122.94,327.88 129.90,325.00 135.88,320.41 140.47,314.43 143.35,307.47 " style="fill:#393ecf;;stroke:#393ecf;stroke-width:0.03;stroke-opacity:1.00" />
<polygon points="173.21,350.00 172.22,342.53 169.34,335.57 164.75,329.59 158.77,325.00 151.81,322.12 144.34,321.13 136.87,322.12 129.90,325.00 123.93,329.59 119.34,335.57 116.45,342.53 115.47,350.00 116.45,357.47 119.34,364.43 123.93,370.41 129.90,375.00 136.87,377.88 144.34,378.87 151.81,377.88 158.77,375.00 164.75,370.41 169.34,364.43 172.22,357.47 " style="fill:#393ecf;;stroke:#393ecf;stroke-width:0.03;stroke-opacity:1.00" />
<polygon points="375.28,300.00 374.29,292.53 371.41,285.57 366.82,279.59 360.84,275.00 353.88,272.12 346.41,271.13 338.94,272.12 331.98,275.00 326.00,279.59 321.41,285.57 318.53,292.53 317.54,300.00 318.53,307.47 321.41,314.43 326.00,320.41 331.98,325.00 338.94,327.88 346.41,328.87 353.88,327.88 360.84,325.00 366.82,320.41 371.41,314.43 374.29,307.47 " style="fill:#393ecf;;stroke:#393ecf;stroke-width:0.03;stroke-opacity:1.00" />
<polygon points="404.15,250.00 403.16,242.53 400.28,235.57 395.69,229.59 389.71,225.00 382.75,222.12 375.28,221.13 367.81,222.12 360.84,225.00 354.87,229.59 350.28,235.57 347.39,242.53 346.41,250.00 347.39,257.47 350.28,264.43 354.87,270.41 360.84,275.00 367.81,277.88 375.28,278.87 382.75,277.88 389.71,275.00 395.69,270.41 400.28,264.43 403.16,257.47 " style="fill:#393ecf;;stroke:#393ecf;stroke-width:0.03;stroke-opacity:1.00" />
</g>
<polygon points="288.68,150.00 287.69,142.53 284.81,135.57 280.22,129.59 274.24,125.00 267.28,122.12 259.81,121.13 252.34,122.12 245.37,125.00 239.40,129.59 234.81,135.57 231.92,142.53 230.94,150.00 231.92,157.47 234.81,164.43 239.40,170.41 245.37,175.00 252.34,177.88 259.81,178.87 267.28,177.88 274.24,175.00 280.22,170.41 284.81,164.43 287.69,157.47 " style="fill:#cf383b;;stroke:#cf383b;stroke-width:0.03;stroke-opacity:1.00" />
<g>
<polygon points="346.41,150.00 345.43,142.53 342.54,135.57 337.96,129.59 331.98,125.00 325.01,122.12 317.54,121.13 310.07,122.12 303.11,125.00 297.13,129.59 292.54,135.57 289.66,142.53 288.68,150.00 289.66,157.47 292.54,164.43 297.13,170.41 303.11,175.00 310.07,177.88 317.54,178.87 325.01,177.88 331.98,175.00 337.95,170.41 342.54,164.43 345.43,157.47 " style="fill:#b8b9cf;;stroke:#b8b9cf;stroke-width:0.03;stroke-opacity:1.00" />
<polygon points="404.15,150.00 403.16,142.53 400.28,135.57 395.69,129.59 389.71,125.00 382.75,122.12 375.28,121.13 367.81,122.12 360.84,125.00 354.87,129.59 350.28,135.57 347.39,142.53 346.41,150.00 347.39,157.47 350.28,164.43 354.87,170.41 360.84,175.00 367.81,177.88 375.28,178.87 382.75,177.88 389.71,175.00 395.69,170.41 400.28,164.43 403.16,157.47 " style="fill:#b8b9cf;;stroke:#b8b9cf;stroke-width:0.03;stroke-opacity:1.00" />
<polygon points="375.28,200.00 374.29,192.53 371.41,185.57 366.82,179.59 360.84,175.00 353.88,172.12 346.41,171.13 338.94,172.12 331.98,175.00 326.00,179.59 321.41,185.57 318.53,192.53 317.54,200.00 318.53,207.47 321.41,214.43 326.00,220.41 331.98,225.00 338.94,227.88 346.41,228.87 353.88,227.88 360.84,225.00 366.82,220.41 371.41,214.43 374.29,207.47 " style="fill:#b8b9cf;;stroke:#b8b9cf;stroke-width:0.03;stroke-opacity:1.00" />
</g>
<polygon points="202.07,200.00 201.09,192.53 198.21,185.57 193.62,179.59 187.64,175.00 180.68,172.12 173.21,171.13 165.73,172.12 158.77,175.00 152.79,179.59 148.21,185.57 145.32,192.53 144.34,200.00 145.32,207.47 148.21,214.43 152.79,220.41 158.77,225.00 165.73,227.88 173.20,228.87 180.68,227.88 187.64,225.00 193.62,220.41 198.21,214.43 201.09,207.47 " style="fill:#b8b9cf;;stroke:#b8b9cf;stroke-width:0.03;stroke-opacity:1.00" />
<polygon points="433.01,200.00 432.03,192.53 429.15,185.57 424.56,179.59 418.58,175.00 411.62,172.12 404.15,171.13 396.67,172.12 389.71,175.00 383.73,179.59 379.15,185.57 376.26,192.53 375.28,200.00 376.26,207.47 379.15,214.43 383.73,220.41 389.71,225.00 396.67,227.88 404.15,228.87 411.62,227.88 418.58,225.00 424.56,220.41 429.15,214.43 432.03,207.47 " style="fill:#cf383b;;stroke:#cf383b;stroke-width:0.03;stroke-opacity:1.00" />
<polygon points="115.47,250.00 114.49,242.53 111.60,235.57 107.01,229.59 101.04,225.00 94.07,222.12 86.60,221.13 79.13,222.12 72.17,225.00 66.19,229.59 61.60,235.57 58.72,242.53 57.74,250.00 58.72,257.47 61.60,264.43 66.19,270.41 72.17,275.00 79.13,277.88 86.60,278.87 94.07,277.88 101.04,275.00 107.01,270.41 111.60,264.43 114.49,257.47 " style="fill:#b8b9cf;;stroke:#b8b9cf;stroke-width:0.03;stroke-opacity:1.00" />
<polygon points="173.21,250.00 172.22,242.53 169.34,235.57 164.75,229.59 158.77,225.00 151.81,222.12 144.34,221.13 136.87,222.12 129.90,225.00 123.93,229.59 119.34,235.57 116.45,242.53 115.47,250.00 116.45,257.47 119.34,264.43 123.93,270.41 129.90,275.00 136.87,277.88 144.34,278.87 151.81,277.88 158.77,275.00 164.75,270.41 169.34,264.43 172.22,257.47 " style="fill:#cf383b;;stroke:#cf383b;stroke-width:0.03;stroke-opacity:1.00" />
<polygon points="346.41,250.00 345.43,242.53 342.54,235.57 337.96,229.59 331.98,225.00 325.01,222.12 317.54,221.13 310.07,222.12 303.11,225.00 297.13,229.59 292.54,235.57 289.66,242.53 288.68,250.00 289.66,257.47 292.54,264.43 297.13,270.41 303.11,275.00 310.07,277.88 317.54,278.87 325.01,277.88 331.98,275.00 337.95,270.41 342.54,264.43 345.43,257.47 " style="fill:#cf383b;;stroke:#cf383b;stroke-width:0.03;stroke-opacity:1.00" />
<g>
<polygon points="230.94,350.00 229.96,342.53 227.07,335.57 222.49,329.59 216.51,325.00 209.54,322.12 202.07,321.13 194.60,322.12 187.64,325.00 181.66,329.59 177.07,335.57 174.19,342.53 173.21,350.00 174.19,357.47 177.07,364.43 181.66,370.41 187.64,375.00 194.60,377.88 202.07,378.87 209.54,377.88 216.51,375.00 222.48,370.41 227.07,364.43 229.96,357.47 " style="fill:#cf383b;;stroke:#cf383b;stroke-width:0.03;stroke-opacity:1.00" />
<polygon points="288.68,350.00 287.69,342.53 284.81,335.57 280.22,329.59 274.24,325.00 267.28,322.12 259.81,321.13 252.34,322.12 245.37,325.00 239.40,329.59 234.81,335.57 231.92,342.53 230.94,350.00 231.92,357.47 234.81,364.43 239.40,370.41 245.37,375.00 252.34,377.88 259.81,378.87 267.28,377.88 274.24,375.00 280.22,370.41 284.81,364.43 287.69,357.47 " style="fill:#cf383b;;stroke:#cf383b;stroke-width:0.03;stroke-opacity:1.00" />
</g>
<polygon points="346.41,350.00 345.43,342.53 342.54,335.57 337.96,329.59 331.98,325.00 325.01,322.12 317.54,321.13 310.07,322.12 303.11,325.00 297.13,329.59 292.54,335.57 289.66,342.53 288.68,350.00 289.66,357.47 292.54,364.43 297.13,370.41 303.11,375.00 310.07,377.88 317.54,378.87 325.01,377.88 331.98,375.00 337.95,370.41 342.54,364.43 345.43,357.47 " style="fill:#b8b9cf;;stroke:#b8b9cf;stroke-width:0.03;stroke-opacity:1.00" />
</g>
</g></svg>
