<svg id="Hexels SVG Export" xmlns="http://www.w3.org/2000/svg" version="1.1" xmlns:xlink="http://www.w3.org/1999/xlink" viewBox="0 -0 554 480" xml:space="preserve">
<g id="Root" transform="matrix(1.000, 0.000, 0.000, 1.000, 0.000, -0.000)">
<g id="Layer 1" transform="matrix(1.000, 0.000, 0.000, 1.000, 0.000, -0.000)">
<path d="M 207.81,-0.50 L 34.20,99.77 L 34.16,340.12 L 103.98,380.50 L 207.75,320.49 L 207.47,400.33 L 346.44,480.50 L 520.05,380.25 L 520.08,179.81 L 415.75,119.50 L 346.66,159.57 L 346.79,79.67 L 207.81,-0.50  z
M 69.73,120.22 L 207.89,40.50 L 311.33,100.25 L 311.28,220.12 L 345.94,240.17 L 345.98,320.25 L 381.53,300.12 L 381.54,180.12 L 415.60,160.49 L 484.50,200.16 L 484.54,359.75 L 346.37,439.50 L 242.92,379.75 L 242.97,259.88 L 208.32,239.83 L 208.28,159.75 L 172.72,179.88 L 172.74,299.80 L 103.83,339.51 L 69.78,319.92 L 69.73,120.22  z
" style="fill:#ffffff;fill-opacity:1.00"/>
<path d="M 208.10,39.57 L 172.70,60.00 L 208.10,80.43 L 208.10,39.57  z
" style="fill:#9affc3;fill-opacity:1.00"/>
<path d="M 207.60,39.57 L 207.59,80.43 L 242.99,60.00 L 207.60,39.57  z
" style="fill:#7dffc3;fill-opacity:1.00"/>
<path d="M 173.45,59.57 L 138.06,80.00 L 173.45,100.43 L 173.45,59.57  z
" style="fill:#bdffc3;fill-opacity:1.00"/>
<path d="M 172.95,59.57 L 172.95,100.43 L 208.35,80.00 L 172.95,59.57  z
" style="fill:#9fffc3;fill-opacity:1.00"/>
<path d="M 242.74,59.57 L 207.35,80.00 L 242.74,100.43 L 242.74,59.57  z
" style="fill:#6effc3;fill-opacity:1.00"/>
<path d="M 242.24,59.57 L 242.23,100.43 L 277.63,80.00 L 242.24,59.57  z
" style="fill:#50ffc3;fill-opacity:1.00"/>
<path d="M 138.81,79.57 L 103.42,100.00 L 138.81,120.43 L 138.81,79.57  z
" style="fill:#dfffc3;fill-opacity:1.00"/>
<path d="M 138.31,79.57 L 138.31,120.43 L 173.70,100.00 L 138.31,79.57  z
" style="fill:#c2ffc3;fill-opacity:1.00"/>
<path d="M 208.10,79.57 L 172.70,100.00 L 208.10,120.43 L 208.10,79.57  z
" style="fill:#90ffc3;fill-opacity:1.00"/>
<path d="M 207.60,79.57 L 207.59,120.43 L 242.99,100.00 L 207.60,79.57  z
" style="fill:#73ffc3;fill-opacity:1.00"/>
<path d="M 277.38,79.57 L 241.99,100.00 L 277.38,120.43 L 277.38,79.57  z
" style="fill:#41ffc3;fill-opacity:1.00"/>
<path d="M 276.69,79.75 L 276.65,159.84 L 241.99,180.01 L 276.63,200.01 L 242.05,219.75 L 242.48,260.50 L 312.23,220.20 L 312.25,99.88 L 276.69,79.75  z
" style="fill:#2dffc3;fill-opacity:1.00"/>
<path d="M 104.17,99.57 L 68.85,119.75 L 69.03,160.43 L 104.36,140.25 L 104.17,99.57  z
" style="fill:#ffffc3;fill-opacity:1.00"/>
<path d="M 103.67,99.57 L 103.67,140.43 L 139.06,120.00 L 103.67,99.57  z
" style="fill:#e4ffc3;fill-opacity:1.00"/>
<path d="M 173.45,99.57 L 138.06,120.00 L 173.45,140.43 L 173.45,99.57  z
" style="fill:#b3ffc3;fill-opacity:1.00"/>
<path d="M 172.95,99.57 L 172.95,140.43 L 208.35,120.00 L 172.95,99.57  z
" style="fill:#95ffc3;fill-opacity:1.00"/>
<path d="M 242.74,99.57 L 207.35,120.00 L 242.74,140.43 L 242.74,99.57  z
" style="fill:#63ffc3;fill-opacity:1.00"/>
<path d="M 242.24,99.57 L 242.23,140.43 L 277.63,120.00 L 242.24,99.57  z
" style="fill:#46ffc3;fill-opacity:1.00"/>
<path d="M 138.81,119.57 L 103.42,140.00 L 138.81,160.43 L 138.81,119.57  z
" style="fill:#d5ffc3;fill-opacity:1.00"/>
<path d="M 138.31,119.57 L 138.31,160.43 L 173.70,140.00 L 138.31,119.57  z
" style="fill:#b8ffc3;fill-opacity:1.00"/>
<path d="M 208.10,119.57 L 172.70,140.00 L 208.10,160.43 L 208.10,119.57  z
" style="fill:#86ffc3;fill-opacity:1.00"/>
<path d="M 207.60,119.57 L 207.59,160.43 L 242.99,140.00 L 207.60,119.57  z
" style="fill:#68ffc3;fill-opacity:1.00"/>
<path d="M 277.38,119.57 L 241.99,140.00 L 277.38,160.43 L 277.38,119.57  z
" style="fill:#36ffc3;fill-opacity:1.00"/>
<path d="M 104.17,139.57 L 68.78,160.00 L 104.17,180.43 L 104.17,139.57  z
" style="fill:#f8ffc3;fill-opacity:1.00"/>
<path d="M 103.67,139.57 L 103.67,180.43 L 139.06,160.00 L 103.67,139.57  z
" style="fill:#daffc3;fill-opacity:1.00"/>
<path d="M 173.45,139.57 L 138.06,160.00 L 173.45,180.43 L 173.45,139.57  z
" style="fill:#a8ffc3;fill-opacity:1.00"/>
<path d="M 172.95,139.57 L 172.95,180.43 L 208.35,160.00 L 172.95,139.57  z
" style="fill:#8bffc3;fill-opacity:1.00"/>
<path d="M 242.74,139.57 L 207.35,160.00 L 242.74,180.43 L 242.74,139.57  z
" style="fill:#59ffc3;fill-opacity:1.00"/>
<path d="M 242.24,139.57 L 242.23,180.43 L 277.63,160.00 L 242.24,139.57  z
" style="fill:#3bffc3;fill-opacity:1.00"/>
<path d="M 69.03,159.57 L 69.03,200.43 L 104.42,180.00 L 69.03,159.57  z
" style="fill:#fdffc3;fill-opacity:1.00"/>
<path d="M 138.81,159.57 L 103.42,180.00 L 138.81,200.43 L 138.81,159.57  z
" style="fill:#cbffc3;fill-opacity:1.00"/>
<path d="M 138.31,159.57 L 138.31,200.43 L 173.70,180.00 L 138.31,159.57  z
" style="fill:#adffc3;fill-opacity:1.00"/>
<path d="M 207.60,159.57 L 207.59,200.43 L 242.99,180.00 L 207.60,159.57  z
" style="fill:#5effc3;fill-opacity:1.00"/>
<path d="M 415.94,159.57 L 380.62,179.75 L 380.80,220.43 L 416.12,200.25 L 415.94,159.57  z
" style="fill:#ffa7a6;fill-opacity:1.00"/>
<path d="M 415.44,159.57 L 415.44,200.43 L 450.83,180.00 L 415.44,159.57  z
" style="fill:#ffafa6;fill-opacity:1.00"/>
<path d="M 104.17,179.57 L 68.78,200.00 L 104.17,220.43 L 104.17,179.57  z
" style="fill:#edffc3;fill-opacity:1.00"/>
<path d="M 103.67,179.57 L 103.67,220.43 L 139.06,200.00 L 103.67,179.57  z
" style="fill:#d0ffc3;fill-opacity:1.00"/>
<path d="M 173.45,179.57 L 138.06,200.00 L 173.45,220.43 L 173.45,179.57  z
" style="fill:#9effc3;fill-opacity:1.00"/>
<path d="M 242.74,179.57 L 207.35,200.00 L 242.74,220.43 L 242.74,179.57  z
" style="fill:#4fffc3;fill-opacity:1.00"/>
<path d="M 242.24,179.57 L 242.23,220.43 L 277.63,200.00 L 242.24,179.57  z
" style="fill:#31ffc3;fill-opacity:1.00"/>
<path d="M 450.58,179.57 L 415.26,199.75 L 415.44,240.43 L 450.76,220.25 L 450.58,179.57  z
" style="fill:#ffb4a6;fill-opacity:1.00"/>
<path d="M 450.08,179.57 L 450.08,220.43 L 485.47,200.00 L 450.08,179.57  z
" style="fill:#ffbca6;fill-opacity:1.00"/>
<path d="M 69.03,199.57 L 69.03,240.43 L 104.42,220.00 L 69.03,199.57  z
" style="fill:#f2ffc3;fill-opacity:1.00"/>
<path d="M 138.81,199.57 L 103.42,220.00 L 138.81,240.43 L 138.81,199.57  z
" style="fill:#c0ffc3;fill-opacity:1.00"/>
<path d="M 138.31,199.57 L 138.31,240.43 L 173.70,220.00 L 138.31,199.57  z
" style="fill:#a3ffc3;fill-opacity:1.00"/>
<path d="M 207.60,199.57 L 207.59,240.43 L 242.99,220.00 L 207.60,199.57  z
" style="fill:#54ffc3;fill-opacity:1.00"/>
<path d="M 415.94,199.57 L 380.62,219.75 L 380.80,260.43 L 416.12,240.25 L 415.94,199.57  z
" style="fill:#ffaaa6;fill-opacity:1.00"/>
<path d="M 485.22,199.57 L 449.90,219.75 L 450.08,260.43 L 485.40,240.25 L 485.22,199.57  z
" style="fill:#ffc1a6;fill-opacity:1.00"/>
<path d="M 104.17,219.57 L 68.78,240.00 L 104.17,260.43 L 104.17,219.57  z
" style="fill:#e3ffc3;fill-opacity:1.00"/>
<path d="M 103.67,219.57 L 103.67,260.43 L 139.06,240.00 L 103.67,219.57  z
" style="fill:#c5ffc3;fill-opacity:1.00"/>
<path d="M 173.45,219.57 L 138.06,240.00 L 173.45,260.43 L 173.45,219.57  z
" style="fill:#94ffc3;fill-opacity:1.00"/>
<path d="M 242.74,219.57 L 207.35,240.00 L 242.74,260.43 L 242.74,219.57  z
" style="fill:#44ffc3;fill-opacity:1.00"/>
<path d="M 312.15,219.67 L 242.03,259.80 L 242.00,380.12 L 277.13,400.50 L 312.27,380.00 L 277.63,359.99 L 312.25,340.12 L 312.15,219.67  z
" style="fill:#ff8ea6;fill-opacity:1.00"/>
<path d="M 311.52,219.57 L 311.51,260.43 L 346.91,240.00 L 311.52,219.57  z
" style="fill:#ff91a6;fill-opacity:1.00"/>
<path d="M 450.58,219.57 L 415.26,239.75 L 415.44,280.43 L 450.76,260.25 L 450.58,219.57  z
" style="fill:#ffb7a6;fill-opacity:1.00"/>
<path d="M 69.03,239.57 L 69.03,280.43 L 104.42,260.00 L 69.03,239.57  z
" style="fill:#e8ffc3;fill-opacity:1.00"/>
<path d="M 138.81,239.57 L 103.42,260.00 L 138.81,280.43 L 138.81,239.57  z
" style="fill:#b6ffc3;fill-opacity:1.00"/>
<path d="M 138.31,239.57 L 138.31,280.43 L 173.70,260.00 L 138.31,239.57  z
" style="fill:#99ffc3;fill-opacity:1.00"/>
<path d="M 346.66,239.57 L 311.33,259.75 L 311.52,300.43 L 346.84,280.25 L 346.66,239.57  z
" style="fill:#ff96a6;fill-opacity:1.00"/>
<path d="M 415.94,239.57 L 380.62,259.75 L 380.80,300.43 L 416.12,280.25 L 415.94,239.57  z
" style="fill:#ffada6;fill-opacity:1.00"/>
<path d="M 485.22,239.57 L 449.90,259.75 L 450.08,300.43 L 485.40,280.25 L 485.22,239.57  z
" style="fill:#ffc4a6;fill-opacity:1.00"/>
<path d="M 104.17,259.57 L 68.78,280.00 L 104.17,300.43 L 104.17,259.57  z
" style="fill:#d9ffc3;fill-opacity:1.00"/>
<path d="M 103.67,259.57 L 103.67,300.43 L 139.06,280.00 L 103.67,259.57  z
" style="fill:#bbffc3;fill-opacity:1.00"/>
<path d="M 173.45,259.57 L 138.06,280.00 L 173.45,300.43 L 173.45,259.57  z
" style="fill:#89ffc3;fill-opacity:1.00"/>
<path d="M 450.58,259.57 L 415.26,279.75 L 415.44,320.43 L 450.76,300.25 L 450.58,259.57  z
" style="fill:#ffbaa6;fill-opacity:1.00"/>
<path d="M 69.03,279.57 L 69.03,320.43 L 104.42,300.00 L 69.03,279.57  z
" style="fill:#deffc3;fill-opacity:1.00"/>
<path d="M 138.81,279.57 L 103.42,300.00 L 138.81,320.43 L 138.81,279.57  z
" style="fill:#acffc3;fill-opacity:1.00"/>
<path d="M 138.31,279.57 L 138.31,320.43 L 173.70,300.00 L 138.31,279.57  z
" style="fill:#8effc3;fill-opacity:1.00"/>
<path d="M 346.66,279.57 L 311.33,299.75 L 311.52,340.43 L 346.84,320.25 L 346.66,279.57  z
" style="fill:#ff99a6;fill-opacity:1.00"/>
<path d="M 415.94,279.57 L 380.62,299.75 L 380.80,340.43 L 416.12,320.25 L 415.94,279.57  z
" style="fill:#ffb0a6;fill-opacity:1.00"/>
<path d="M 485.22,279.57 L 449.90,299.75 L 450.08,340.43 L 485.40,320.25 L 485.22,279.57  z
" style="fill:#ffc7a6;fill-opacity:1.00"/>
<path d="M 104.17,299.57 L 68.78,320.00 L 104.17,340.43 L 104.17,299.57  z
" style="fill:#ceffc3;fill-opacity:1.00"/>
<path d="M 103.67,299.57 L 103.67,340.43 L 139.06,320.00 L 103.67,299.57  z
" style="fill:#b1ffc3;fill-opacity:1.00"/>
<path d="M 381.30,299.57 L 345.98,319.75 L 346.16,360.43 L 381.48,340.25 L 381.30,299.57  z
" style="fill:#ffa6a6;fill-opacity:1.00"/>
<path d="M 450.58,299.57 L 415.26,319.75 L 415.44,360.43 L 450.76,340.25 L 450.58,299.57  z
" style="fill:#ffbda6;fill-opacity:1.00"/>
<path d="M 346.66,319.57 L 311.33,339.75 L 311.52,380.43 L 346.84,360.25 L 346.66,319.57  z
" style="fill:#ff9ca6;fill-opacity:1.00"/>
<path d="M 415.94,319.57 L 380.62,339.75 L 380.80,380.43 L 416.12,360.25 L 415.94,319.57  z
" style="fill:#ffb3a6;fill-opacity:1.00"/>
<path d="M 485.22,319.57 L 449.90,339.75 L 450.08,380.43 L 485.40,360.25 L 485.22,319.57  z
" style="fill:#ffcaa6;fill-opacity:1.00"/>
<path d="M 312.02,339.57 L 276.63,360.00 L 312.02,380.43 L 312.02,339.57  z
" style="fill:#ff92a6;fill-opacity:1.00"/>
<path d="M 381.30,339.57 L 345.98,359.75 L 346.16,400.43 L 381.48,380.25 L 381.30,339.57  z
" style="fill:#ffa9a6;fill-opacity:1.00"/>
<path d="M 450.58,339.57 L 415.26,359.75 L 415.44,400.43 L 450.76,380.25 L 450.58,339.57  z
" style="fill:#ffc0a6;fill-opacity:1.00"/>
<path d="M 346.66,359.57 L 311.33,379.75 L 311.52,420.43 L 346.84,400.25 L 346.66,359.57  z
" style="fill:#ff9fa6;fill-opacity:1.00"/>
<path d="M 415.94,359.57 L 380.62,379.75 L 380.80,420.43 L 416.12,400.25 L 415.94,359.57  z
" style="fill:#ffb6a6;fill-opacity:1.00"/>
<path d="M 312.02,379.57 L 276.63,400.00 L 312.02,420.43 L 312.02,379.57  z
" style="fill:#ff95a6;fill-opacity:1.00"/>
<path d="M 381.30,379.57 L 345.98,399.75 L 346.16,440.43 L 381.48,420.25 L 381.30,379.57  z
" style="fill:#ffaca6;fill-opacity:1.00"/>
<path d="M 346.66,399.57 L 311.27,420.00 L 346.66,440.43 L 346.66,399.57  z
" style="fill:#ffa2a6;fill-opacity:1.00"/>
</g>
</g></svg>
